<svg xmlns="http://www.w3.org/2000/svg" width="28" height="28" viewBox="0 0 28 28">
  <g id="icon-a-1" transform="translate(-1610 -440.3)">
    <rect id="사각형_313" data-name="사각형 313" width="28" height="28" transform="translate(1610 440.3)" fill="#fff" opacity="0"/>
    <g id="그룹_123" data-name="그룹 123" transform="translate(1611.131 444)">
      <path id="사각형_223" data-name="사각형 223" d="M6.538,0h4.034a6.539,6.539,0,0,1,6.539,6.539v0a6.538,6.538,0,0,1-6.538,6.538H6.538A6.538,6.538,0,0,1,0,6.539v0A6.538,6.538,0,0,1,6.538,0Z" transform="translate(4.313 0)" fill="none" stroke="#333" stroke-miterlimit="10" stroke-width="1.2"/>
      <rect id="사각형_224" data-name="사각형 224" width="25.738" height="14.822" transform="translate(0 5.685)" fill="#fff"/>
      <path id="패스_121" data-name="패스 121" d="M13.869,51.949h7.492l5.376-4.135v-2.64H1v2.641l5.376,4.134Z" transform="translate(-1 -39.489)" fill="#3dd5d3"/>
      <rect id="사각형_225" data-name="사각형 225" width="25.738" height="14.822" transform="translate(0 5.685)" fill="none" stroke="#333" stroke-miterlimit="10" stroke-width="1.2"/>
      <rect id="사각형_226" data-name="사각형 226" width="8.528" height="1.921" transform="translate(8.605 11.5)" fill="#fff"/>
      <rect id="사각형_227" data-name="사각형 227" width="8.475" height="3.132" transform="translate(8.658 11.5)" fill="#fff" stroke="#333" stroke-miterlimit="10" stroke-width="1.2"/>
    </g>
  </g>
</svg>
