<svg xmlns="http://www.w3.org/2000/svg" width="28" height="28" viewBox="0 0 28 28">
  <g id="icon-a-2" transform="translate(-1639 -440.3)">
    <rect id="사각형_315" data-name="사각형 315" width="28" height="28" transform="translate(1639 440.3)" fill="#fff" opacity="0"/>
    <g id="그룹_124" data-name="그룹 124" transform="translate(1643.92 442.279)">
      <rect id="사각형_221" data-name="사각형 221" width="18.16" height="24.139" transform="translate(0 0)" fill="#fff" stroke="#333" stroke-width="1.2"/>
      <rect id="사각형_222" data-name="사각형 222" width="18.16" height="24.139" transform="translate(0 0)" fill="none" stroke="#333" stroke-miterlimit="10" stroke-width="1.2"/>
      <path id="패스_119" data-name="패스 119" d="M119.846,28.318a1.85,1.85,0,1,0,1.85-1.85,1.851,1.851,0,0,0-1.85,1.85" transform="translate(-116.501 -23.346)" fill="#3dd5d3"/>
      <path id="패스_120" data-name="패스 120" d="M115.443,42.29a2.429,2.429,0,0,1,2.428-2.428H119.5a2.429,2.429,0,0,1,2.429,2.428V43.8h-6.488Z" transform="translate(-113.488 -32.499)" fill="#3dd5d3"/>
      <line id="선_6" data-name="선 6" x2="6.55" transform="translate(9.221 5.296)" fill="none" stroke="#333" stroke-miterlimit="10" stroke-width="1.2"/>
      <line id="선_7" data-name="선 7" x2="6.55" transform="translate(9.221 7.861)" fill="none" stroke="#333" stroke-miterlimit="10" stroke-width="1.2"/>
      <line id="선_8" data-name="선 8" x2="12.944" transform="translate(2.625 14.571)" fill="none" stroke="#333" stroke-miterlimit="10" stroke-width="1.2"/>
      <line id="선_9" data-name="선 9" x2="12.944" transform="translate(2.625 17.042)" fill="none" stroke="#333" stroke-miterlimit="10" stroke-width="1.2"/>
      <line id="선_10" data-name="선 10" x2="12.944" transform="translate(2.625 19.513)" fill="none" stroke="#333" stroke-miterlimit="10" stroke-width="1.2"/>
    </g>
  </g>
</svg>
