<svg xmlns="http://www.w3.org/2000/svg" width="56" height="56" viewBox="0 0 56 56">
  <g id="icon-b-2" transform="translate(-1413 -642)">
    <rect id="사각형_311" data-name="사각형 311" width="56" height="56" transform="translate(1413 642)" fill="#fff" opacity="0"/>
    <g id="그룹_118" data-name="그룹 118" transform="translate(1413 642)">
      <g id="그룹_109" data-name="그룹 109">
        <circle id="타원_26" data-name="타원 26" cx="26" cy="26" r="26" transform="translate(2.289 1.59)" fill="#fff"/>
        <path id="패스_136" data-name="패스 136" d="M27.92,55.84A27.92,27.92,0,1,1,55.84,27.92,27.952,27.952,0,0,1,27.92,55.84m0-53.2A25.281,25.281,0,1,0,53.2,27.92,25.309,25.309,0,0,0,27.92,2.639" fill="#333"/>
        <path id="패스_137" data-name="패스 137" d="M29.167,36.482h8.188a13.411,13.411,0,0,1,12.5,8.547,20.345,20.345,0,1,0-33.182,0,13.412,13.412,0,0,1,12.5-8.547m4.094-17.6a7.038,7.038,0,1,1-7.038,7.038,7.038,7.038,0,0,1,7.038-7.038" transform="translate(-5.341 -5.341)" fill="#3fc432"/>
        <path id="패스_138" data-name="패스 138" d="M32.33,53.994A21.663,21.663,0,0,1,17.011,17.012a1.32,1.32,0,0,1,1.866,1.866A19.025,19.025,0,1,0,32.33,13.306a1.32,1.32,0,0,1,0-2.639,21.664,21.664,0,1,1,0,43.327" transform="translate(-4.41 -4.411)" fill="#333"/>
        <path id="패스_139" data-name="패스 139" d="M29.858,17.664a1.564,1.564,0,1,0-1.564,1.564,1.564,1.564,0,0,0,1.564-1.564" transform="translate(-11.053 -6.657)" fill="#333"/>
      </g>
    </g>
  </g>
</svg>
