<svg xmlns="http://www.w3.org/2000/svg" xmlns:xlink="http://www.w3.org/1999/xlink" width="38" height="38" viewBox="0 0 38 38">
  <defs>
    <clipPath id="clip-path">
      <rect id="사각형_177" data-name="사각형 177" width="32.956" height="34.08" fill="none"/>
    </clipPath>
  </defs>
  <g id="icon-d-3" transform="translate(-4338 -13808)">
    <rect id="사각형_328" data-name="사각형 328" width="38" height="38" transform="translate(4338 13808)" fill="#fff" opacity="0"/>
    <g id="그룹_137" data-name="그룹 137" transform="translate(3474.044 12825)">
      <g id="그룹_29" data-name="그룹 29" transform="translate(869 983)">
        <g id="그룹_28" data-name="그룹 28" clip-path="url(#clip-path)">
          <path id="패스_19" data-name="패스 19" d="M11.2,226.261a2.768,2.768,0,0,1,2.757-2.768V219.28H9.749a2.768,2.768,0,1,0-5.536,0H2.071A2.071,2.071,0,0,0,0,221.351v9.819a2.071,2.071,0,0,0,2.071,2.071h11.89v-4.213a2.768,2.768,0,0,1-2.757-2.768" transform="translate(0 -199.162)" fill="#f4d5ff"/>
          <path id="패스_20" data-name="패스 20" d="M6.981,88.568a2.768,2.768,0,0,1,2.768,2.757h4.213V87.113a2.768,2.768,0,0,0,0-5.536V77.364H2.071A2.071,2.071,0,0,0,0,79.435v9.819a2.071,2.071,0,0,0,2.071,2.071H4.213a2.768,2.768,0,0,1,2.768-2.757" transform="translate(0 -71.164)" fill="#cb97ff"/>
          <path id="패스_21" data-name="패스 21" d="M215.561,8.627a2.768,2.768,0,0,1-2.181,3.241l.8,4.136,4.136-.8a2.768,2.768,0,0,0,5.435-1.052l2.1-.407a2.071,2.071,0,0,0,1.64-2.427l-1.866-9.64A2.071,2.071,0,0,0,223.2.038L211.527,2.3l.8,4.136a2.768,2.768,0,0,1,3.233,2.193" transform="translate(-194.576 0)" fill="#c764f1"/>
          <path id="패스_22" data-name="패스 22" d="M148.279,253.812a2.768,2.768,0,0,1-2.768-2.757H141.3v4.213a2.768,2.768,0,1,0,0,5.536v4.213h11.89a2.071,2.071,0,0,0,2.071-2.071v-9.819a2.071,2.071,0,0,0-2.071-2.071h-2.142a2.768,2.768,0,0,1-2.768,2.757" transform="translate(-127.429 -230.937)" fill="#cb97ff"/>
        </g>
      </g>
    </g>
  </g>
</svg>
