<svg xmlns="http://www.w3.org/2000/svg" xmlns:xlink="http://www.w3.org/1999/xlink" width="45" height="45" viewBox="0 0 45 45">
  <defs>
    <clipPath id="clip-path">
      <rect id="사각형_175" data-name="사각형 175" width="27.813" height="26.078" fill="none"/>
    </clipPath>
  </defs>
  <g id="icon-c-2" transform="translate(-642 -966)">
    <g id="타원_6" data-name="타원 6" transform="translate(642 966)" fill="#fff" stroke="#d5d5d5" stroke-width="1">
      <circle cx="22.5" cy="22.5" r="22.5" stroke="none"/>
      <circle cx="22.5" cy="22.5" r="22" fill="none"/>
    </g>
    <g id="그룹_25" data-name="그룹 25" transform="translate(651 975)">
      <g id="그룹_24" data-name="그룹 24" clip-path="url(#clip-path)">
        <path id="패스_3" data-name="패스 3" d="M147.663,12.329V9.095a9.095,9.095,0,0,0-18.19,0,12.1,12.1,0,0,0,.34,2.847l3.126,12.912a1.6,1.6,0,0,0,1.555,1.224h5.969a1.6,1.6,0,0,0,1.565-1.933l-.589-2.769h2.508a2.8,2.8,0,0,0,2.795-2.795V15.973h1.7a.755.755,0,0,0,.657-1.128l-1.438-2.534" transform="translate(-121.389)" fill="#8acdcf"/>
        <line id="선_5" data-name="선 5" y2="0.335" transform="translate(23.704 11.934)" fill="none" stroke="#fff" stroke-linecap="round" stroke-linejoin="round" stroke-width="1"/>
        <path id="패스_4" data-name="패스 4" d="M1.54,12.329V9.095a9.095,9.095,0,0,1,18.19,0,12.1,12.1,0,0,1-.34,2.847L16.264,24.855a1.6,1.6,0,0,1-1.555,1.224H8.74a1.6,1.6,0,0,1-1.565-1.933l.589-2.769H5.256a2.8,2.8,0,0,1-2.795-2.795V15.973H.757A.755.755,0,0,1,.1,14.845l1.438-2.534" transform="translate(0)" fill="#0070bd"/>
        <path id="패스_33" data-name="패스 33" d="M0,0V.335" transform="translate(4.109 11.934)" fill="none" stroke="#fff" stroke-linecap="round" stroke-width="1"/>
        <path id="패스_5" data-name="패스 5" d="M43.573,277.871a3.98,3.98,0,0,1-2.31,1.022" transform="translate(-38.687 -260.522)" fill="none" stroke="#fff" stroke-linecap="round" stroke-linejoin="round" stroke-width="1"/>
        <path id="패스_34" data-name="패스 34" d="M41.263,277.871a3.98,3.98,0,0,0,2.311,1.022" transform="translate(-17.885 -260.522)" fill="none" stroke="#fff" stroke-linecap="round" stroke-linejoin="round" stroke-width="1"/>
      </g>
    </g>
  </g>
</svg>
