<svg xmlns="http://www.w3.org/2000/svg" xmlns:xlink="http://www.w3.org/1999/xlink" width="45" height="45" viewBox="0 0 45 45">
  <defs>
    <clipPath id="clip-path">
      <rect id="사각형_177" data-name="사각형 177" width="25.751" height="26.629" fill="none"/>
    </clipPath>
  </defs>
  <g id="icon-c-3" transform="translate(-890 -956)">
    <g id="타원_12" data-name="타원 12" transform="translate(890 956)" fill="#fff" stroke="#d5d5d5" stroke-width="1">
      <circle cx="22.5" cy="22.5" r="22.5" stroke="none"/>
      <circle cx="22.5" cy="22.5" r="22" fill="none"/>
    </g>
    <g id="그룹_29" data-name="그룹 29" transform="translate(901 963.371)">
      <g id="그룹_28" data-name="그룹 28" clip-path="url(#clip-path)">
        <path id="패스_19" data-name="패스 19" d="M8.755,224.129a2.163,2.163,0,0,1,2.154-2.163v-3.292H7.617a2.163,2.163,0,0,0-4.326,0H1.618A1.618,1.618,0,0,0,0,220.293v7.672a1.618,1.618,0,0,0,1.618,1.618h9.291v-3.292a2.163,2.163,0,0,1-2.154-2.163" transform="translate(0 -202.955)" fill="#e0e6ee"/>
        <path id="패스_20" data-name="패스 20" d="M5.455,86.119a2.163,2.163,0,0,1,2.163,2.154h3.292V84.981a2.163,2.163,0,0,0,0-4.326V77.364H1.618A1.618,1.618,0,0,0,0,78.982v7.672a1.618,1.618,0,0,0,1.618,1.618H3.292a2.163,2.163,0,0,1,2.163-2.154" transform="translate(0 -72.52)" fill="#8acdcf"/>
        <path id="패스_21" data-name="패스 21" d="M214.679,6.741a2.163,2.163,0,0,1-1.7,2.533l.626,3.232,3.232-.626a2.163,2.163,0,1,0,4.247-.822l1.643-.318A1.618,1.618,0,0,0,224,8.843l-1.458-7.532a1.618,1.618,0,0,0-1.9-1.281L211.527,1.8l.626,3.232a2.163,2.163,0,0,1,2.526,1.714" transform="translate(-198.282 0)" fill="#0070bd"/>
        <path id="패스_22" data-name="패스 22" d="M146.147,253.209a2.163,2.163,0,0,1-2.163-2.154h-3.292v3.292a2.163,2.163,0,1,0,0,4.326v3.292h9.291a1.618,1.618,0,0,0,1.618-1.618v-7.672a1.618,1.618,0,0,0-1.618-1.618H148.31a2.163,2.163,0,0,1-2.163,2.154" transform="translate(-129.856 -235.335)" fill="#8acdcf"/>
      </g>
    </g>
  </g>
</svg>
