<svg xmlns="http://www.w3.org/2000/svg" width="56" height="56" viewBox="0 0 56 56">
  <g id="icon-b-3" transform="translate(-1327 -642)">
    <rect id="사각형_310" data-name="사각형 310" width="56" height="56" transform="translate(1327 642)" fill="#fff" opacity="0"/>
    <g id="그룹_119" data-name="그룹 119" transform="translate(1327 643)">
      <path id="패스_144" data-name="패스 144" d="M0,0H11.339V8.211H0Z" transform="translate(6.478 31.37)" fill="#9ca3e1"/>
      <g id="그룹_102" data-name="그룹 102" transform="translate(0 0)">
        <g id="그룹_110" data-name="그룹 110">
          <path id="패스_145" data-name="패스 145" d="M37.581,9.59l9.155,9.154,3.662-4v-2.06l4.12-4.234L47.308,1.694,42.731,6.157H40.556Z" fill="#fff"/>
          <rect id="사각형_307" data-name="사각형 307" width="52" height="29" transform="translate(2 21.657)" fill="#fff"/>
          <path id="패스_127" data-name="패스 127" d="M54.521,67.209H1.32A1.32,1.32,0,0,1,0,65.89V35.851a1.32,1.32,0,0,1,1.32-1.32h53.2a1.32,1.32,0,0,1,1.32,1.32V65.89a1.32,1.32,0,0,1-1.32,1.32M2.639,64.57H53.2V37.17H2.639Z" transform="translate(0 -14.279)" fill="#333"/>
          <rect id="사각형_303" data-name="사각형 303" width="23.051" height="11.26" transform="translate(21.165 26.715) rotate(-45.002)" fill="#8894ff"/>
          <path id="패스_128" data-name="패스 128" d="M26.8,43.888a1.319,1.319,0,0,1-1.279-1.642L28.6,29.995a1.309,1.309,0,0,1,.347-.611L50.722,7.611a1.319,1.319,0,0,1,1.866,0l9.163,9.162a1.32,1.32,0,0,1,0,1.866L39.977,40.413a1.312,1.312,0,0,1-.611.346L27.119,43.848a1.321,1.321,0,0,1-.323.04m4.278-12.895-2.458,9.756,9.753-2.459L58.952,17.706l-7.3-7.3Z" transform="translate(-10.535 -2.987)" fill="#333"/>
          <path id="패스_129" data-name="패스 129" d="M79.537,14a1.32,1.32,0,0,1-.933-2.253L82.152,8.2,77.137,3.186,73.589,6.734a1.319,1.319,0,0,1-1.866-1.866L76.2.387a1.32,1.32,0,0,1,1.866,0l6.881,6.882a1.32,1.32,0,0,1,0,1.866l-4.48,4.48a1.317,1.317,0,0,1-.933.387" transform="translate(-29.498 0)" fill="#333"/>
          <path id="패스_130" data-name="패스 130" d="M42.06,55.134a1.318,1.318,0,0,1-.934-.387l-8.551-8.554a1.32,1.32,0,1,1,1.866-1.866l8.552,8.554a1.32,1.32,0,0,1-.933,2.253" transform="translate(-13.31 -18.169)" fill="#333"/>
          <path id="패스_131" data-name="패스 131" d="M71.726,25.2a1.318,1.318,0,0,1-.934-.387l-7.666-7.666a1.319,1.319,0,0,1,1.866-1.866l7.666,7.666a1.32,1.32,0,0,1-.933,2.253" transform="translate(-25.943 -6.161)" fill="#333"/>
          <path id="패스_132" data-name="패스 132" d="M41.85,41.447a1.32,1.32,0,0,1-.933-2.253L57.048,23.062a1.32,1.32,0,1,1,1.866,1.866L42.783,41.061a1.316,1.316,0,0,1-.933.387" transform="translate(-16.759 -9.376)" fill="#333"/>
          <path id="패스_133" data-name="패스 133" d="M29.421,56.008l-1.7,6.732,6.731-1.7Z" transform="translate(-11.464 -23.159)" fill="#3e3a39"/>
          <path id="패스_134" data-name="패스 134" d="M19.5,67.875H10.116a1.32,1.32,0,0,1,0-2.639H19.5a1.32,1.32,0,0,1,0,2.639" transform="translate(-3.637 -26.975)" fill="#333"/>
          <path id="패스_135" data-name="패스 135" d="M38.464,76.875H10.116a1.32,1.32,0,0,1,0-2.639H38.464a1.32,1.32,0,1,1,0,2.639" transform="translate(-3.637 -30.696)" fill="#333"/>
        </g>
      </g>
    </g>
  </g>
</svg>
