<svg xmlns="http://www.w3.org/2000/svg" width="56" height="56" viewBox="0 0 56 56">
  <g id="icon-b-1" transform="translate(-1247 -642)">
    <rect id="사각형_309" data-name="사각형 309" width="56" height="56" transform="translate(1247 642)" fill="#fff" opacity="0"/>
    <g id="그룹_117" data-name="그룹 117" transform="translate(1247 642.999)">
      <path id="패스_146" data-name="패스 146" d="M27.92,1.725,6.358,14.072V50.965H48.9V14.072Z" fill="#fff"/>
      <g id="그룹_108" data-name="그룹 108" transform="translate(0 0)">
        <path id="패스_140" data-name="패스 140" d="M42.33,50.1a7.482,7.482,0,0,0-7.483,7.481V71.548H49.812V57.581A7.482,7.482,0,0,0,42.33,50.1" transform="translate(-14.409 -20.716)" fill="#7dd2d1"/>
        <path id="패스_141" data-name="패스 141" d="M52.9,62.605H10.681a1.32,1.32,0,0,1-1.32-1.32V24.63a1.32,1.32,0,1,1,2.639,0V59.966H51.582V24.63a1.32,1.32,0,0,1,2.639,0V61.285a1.32,1.32,0,0,1-1.32,1.32" transform="translate(-3.871 -10.638)" fill="#333"/>
        <path id="패스_142" data-name="패스 142" d="M54.519,18a1.31,1.31,0,0,1-.659-.177L27.92,2.844,1.979,17.821A1.319,1.319,0,0,1,.66,15.536L27.26.177a1.319,1.319,0,0,1,1.32,0l26.6,15.359A1.32,1.32,0,0,1,54.519,18" transform="translate(0 0)" fill="#333"/>
        <path id="패스_143" data-name="패스 143" d="M51.647,27.891a5.678,5.678,0,1,0-5.678,5.678,5.678,5.678,0,0,0,5.678-5.678" transform="translate(-18.048 -10.573)" fill="#7dd2d1"/>
      </g>
    </g>
  </g>
</svg>
