<svg xmlns="http://www.w3.org/2000/svg" width="28" height="28" viewBox="0 0 28 28">
  <g id="icon-a-3" transform="translate(-1668 -440.3)">
    <rect id="사각형_312" data-name="사각형 312" width="28" height="28" transform="translate(1668 440.3)" fill="#fff" opacity="0"/>
    <g id="그룹_125" data-name="그룹 125" transform="translate(1672.237 441)">
      <path id="패스_122" data-name="패스 122" d="M224.92,21.586a9.763,9.763,0,1,0-13.787,8.895l1.051,3.229h5.944l1.052-3.229a9.763,9.763,0,0,0,5.739-8.895" transform="translate(-205.393 -11.822)" fill="#fff" stroke="#707070" stroke-width="1.2"/>
      <path id="패스_123" data-name="패스 123" d="M224.92,21.586a9.763,9.763,0,1,0-13.787,8.895l1.051,3.229h5.944l1.052-3.229A9.763,9.763,0,0,0,224.92,21.586Z" transform="translate(-205.393 -11.822)" fill="none" stroke="#333" stroke-miterlimit="10" stroke-width="1.2"/>
      <path id="패스_124" data-name="패스 124" d="M213.906,25.152a8.224,8.224,0,0,0-1.429,4.736,7.539,7.539,0,0,0,3.405,6.156" transform="translate(-209.868 -20.243)" fill="none" stroke="#3dd5d3" stroke-miterlimit="10" stroke-width="1.2"/>
      <path id="패스_126" data-name="패스 126" d="M225.162,74.916h0c0,1.372,1.435,2.482,3.206,2.482s3.206-1.11,3.206-2.482Z" transform="translate(-218.604 -50.702)" fill="#3dd5d3"/>
    </g>
  </g>
</svg>
