<svg xmlns="http://www.w3.org/2000/svg" width="38" height="38" viewBox="0 0 38 38">
  <g id="icon-d-4" transform="translate(-4381 -13808)">
    <rect id="사각형_329" data-name="사각형 329" width="38" height="38" transform="translate(4381 13808)" fill="#fff" opacity="0"/>
    <g id="그룹_138" data-name="그룹 138" transform="translate(3279.484 12826)">
      <g id="그룹_27" data-name="그룹 27" transform="translate(1103 987)">
        <g id="그룹_33" data-name="그룹 33" transform="translate(0 0)">
          <path id="패스_7" data-name="패스 7" d="M31.248,96.044H3.784A3.784,3.784,0,0,1,0,92.26V73.712H35.032V92.26a3.784,3.784,0,0,1-3.784,3.784" transform="translate(0 -67.805)" fill="#e0e6ee"/>
          <path id="패스_8" data-name="패스 8" d="M35.032,5.906H0V2.151A2.152,2.152,0,0,1,2.152,0H32.88a2.152,2.152,0,0,1,2.152,2.152Z" transform="translate(0 0.001)" fill="#0070bd"/>
          <path id="패스_9" data-name="패스 9" d="M30.246,24.437h0a1.185,1.185,0,1,1,1.185-1.185,1.185,1.185,0,0,1-1.185,1.185" transform="translate(-26.732 -20.299)" fill="#ff762d"/>
          <path id="패스_10" data-name="패스 10" d="M71.1,24.437h0a1.185,1.185,0,1,1,1.185-1.185A1.185,1.185,0,0,1,71.1,24.437" transform="translate(-64.309 -20.299)" fill="#fff"/>
          <path id="패스_11" data-name="패스 11" d="M94.236,123.828H92.752a.533.533,0,1,1,0-1.066h1.485a.533.533,0,0,1,0,1.066" transform="translate(-84.829 -112.924)" fill="#0070bd"/>
          <path id="패스_12" data-name="패스 12" d="M167.644,123.828H153a.533.533,0,0,1,0-1.066h14.648a.533.533,0,1,1,0,1.066" transform="translate(-140.245 -112.924)" fill="#0070bd"/>
          <path id="패스_13" data-name="패스 13" d="M95.725,174.657H89.137a.533.533,0,1,1,0-1.066h6.588a.533.533,0,1,1,0,1.066" transform="translate(-81.504 -159.68)" fill="#0070bd"/>
          <path id="패스_14" data-name="패스 14" d="M209.249,174.657h-2.678a.533.533,0,1,1,0-1.066h2.678a.533.533,0,1,1,0,1.066" transform="translate(-189.527 -159.68)" fill="#0070bd"/>
          <path id="패스_15" data-name="패스 15" d="M282.173,174.657H277.5a.533.533,0,0,1,0-1.066h4.671a.533.533,0,1,1,0,1.066" transform="translate(-254.774 -159.68)" fill="#0070bd"/>
          <path id="패스_16" data-name="패스 16" d="M161.179,242.047h-6.908a1.847,1.847,0,1,1,0-3.694h6.908a1.847,1.847,0,1,1,0,3.694" transform="translate(-140.209 -219.252)" fill="#fff"/>
        </g>
      </g>
    </g>
  </g>
</svg>
