<svg xmlns="http://www.w3.org/2000/svg" xmlns:xlink="http://www.w3.org/1999/xlink" width="45" height="45" viewBox="0 0 45 45">
  <defs>
    <clipPath id="clip-path">
      <rect id="사각형_181" data-name="사각형 181" width="22.956" height="24.041" fill="none"/>
    </clipPath>
  </defs>
  <g id="icon-c-5" transform="translate(-1328 -966)">
    <g id="타원_14" data-name="타원 14" transform="translate(1328 966)" fill="#fff" stroke="#d5d5d5" stroke-width="1">
      <circle cx="22.5" cy="22.5" r="22.5" stroke="none"/>
      <circle cx="22.5" cy="22.5" r="22" fill="none"/>
    </g>
    <g id="그룹_32" data-name="그룹 32" transform="translate(1340 976.479)">
      <rect id="사각형_178" data-name="사각형 178" width="17.982" height="24.041" transform="translate(0 0)" fill="#e0e6ee"/>
      <rect id="사각형_179" data-name="사각형 179" width="10.536" height="2.975" transform="translate(3.723 0)" fill="#0070bd"/>
      <g id="그룹_31" data-name="그룹 31" transform="translate(0 0)">
        <g id="그룹_30" data-name="그룹 30" clip-path="url(#clip-path)">
          <path id="패스_23" data-name="패스 23" d="M70.077,130.878a.281.281,0,0,0-.5-.133l-.519.68-.327-.371a.279.279,0,0,0-.193-.095.276.276,0,0,0-.2.07.281.281,0,0,0-.025.4l.554.628a.281.281,0,0,0,.211.1h.01a.28.28,0,0,0,.213-.11l.726-.953a.279.279,0,0,0,.055-.208" transform="translate(-64.103 -122.718)" fill="#0070bd"/>
          <path id="패스_24" data-name="패스 24" d="M118.644,137.142H112.41a.413.413,0,1,1,0-.826h6.234a.413.413,0,1,1,0,.826" transform="translate(-105.21 -128.055)" fill="#0070bd"/>
          <path id="패스_25" data-name="패스 25" d="M70.077,198.6a.281.281,0,0,0-.5-.133l-.519.68-.327-.371a.279.279,0,0,0-.193-.095.276.276,0,0,0-.2.07.281.281,0,0,0-.025.4l.554.628a.281.281,0,0,0,.211.1h.01a.28.28,0,0,0,.213-.11l.726-.953a.279.279,0,0,0,.055-.208" transform="translate(-64.103 -186.34)" fill="#0070bd"/>
          <path id="패스_26" data-name="패스 26" d="M118.644,204.869H112.41a.413.413,0,1,1,0-.826h6.234a.413.413,0,1,1,0,.826" transform="translate(-105.21 -191.678)" fill="#0070bd"/>
          <path id="패스_27" data-name="패스 27" d="M70.077,266.332a.281.281,0,0,0-.5-.133l-.519.68-.327-.371a.279.279,0,0,0-.193-.095.276.276,0,0,0-.2.07.281.281,0,0,0-.025.4l.554.628a.281.281,0,0,0,.211.1h.01a.28.28,0,0,0,.213-.11l.726-.953a.279.279,0,0,0,.055-.208" transform="translate(-64.103 -249.963)" fill="#0070bd"/>
          <path id="패스_28" data-name="패스 28" d="M118.644,272.6H112.41a.413.413,0,1,1,0-.826h6.234a.413.413,0,1,1,0,.826" transform="translate(-105.21 -255.301)" fill="#0070bd"/>
          <path id="패스_29" data-name="패스 29" d="M333,.877h-1.264V.5a.5.5,0,0,1,.5-.5h.269a.5.5,0,0,1,.5.5Z" transform="translate(-311.634)" fill="#0070bd"/>
          <rect id="사각형_180" data-name="사각형 180" width="2.072" height="17.405" transform="translate(19.699 1.291)" fill="#8acdcf"/>
          <path id="패스_30" data-name="패스 30" d="M345.351,60.892v-5.7h-1.836" transform="translate(-322.697 -51.846)" fill="none" stroke="#8acdcf" stroke-linecap="round" stroke-linejoin="round" stroke-width="2"/>
          <path id="패스_31" data-name="패스 31" d="M338.3,326.579h0a.249.249,0,0,0,.249-.249v-3.936a.249.249,0,0,0-.5,0v3.936a.249.249,0,0,0,.249.249" transform="translate(-317.562 -302.622)" fill="#ff9b8e"/>
          <path id="패스_32" data-name="패스 32" d="M326.525,320.347h-.845l-.613-4.074h2.072Z" transform="translate(-305.367 -297.107)" fill="#0070bd"/>
        </g>
      </g>
    </g>
  </g>
</svg>
